<svg xmlns="http://www.w3.org/2000/svg" width="643.41" height="544.02" viewBox="0 0 643.41 544.02"><defs><style>.cls-1{fill:#29b6f6;}.cls-1,.cls-2,.cls-3{opacity:0.2;}.cls-2{fill:#03a9f4;}.cls-3{fill:#1ad3ff;}.cls-4{fill:#4fc3f7;}.cls-5{fill:#ff9b75;}.cls-6{fill:#e91e63;}.cls-7{fill:#08217e;}.cls-8{fill:#fff;}.cls-9{fill:#b0bec5;}.cls-10{fill:#1a237e;}.cls-11{fill:#0a1b60;}.cls-12{fill:#c2dde1;}.cls-13{fill:#dcebec;}.cls-14{fill:#2196f3;}</style></defs><title>Asset 2</title><g id="Layer_2" data-name="Layer 2"><g id="Ñëîé_1" data-name="Ñëîé 1"><path class="cls-1" d="M193.37,233.33V337.74s54.13-26.53,72.48-44.82l.88-102.15s-25,19.65-35.74,24.61C210.24,225,193.37,233.33,193.37,233.33Z"/><path class="cls-2" d="M204.79,241.37l-.37,32.49s37.12-16.55,51.37-27.64V213.87S245.67,222.91,204.79,241.37Z"/><path class="cls-2" d="M204.79,287.26l-.37,32.49s37.12-16.55,51.37-27.64V259.76S245.67,268.8,204.79,287.26Z"/><path class="cls-3" d="M482.32,123.6s37.05,8.95,52.39,9.84v73.1l-52.13-12.83Z"/><path class="cls-1" d="M150.12,111.26C193.48,103,256.65,33.38,306.6,33.38c50.29,0,85.12,67,240,83V216.5s-117-11.2-232.72-69.6c-25.42-12.83-57.59,35.42-107,56.79-44.24,19.11-56.7,14.81-56.7,14.81Z"/><path class="cls-4" d="M210.57,178.39a.5.5,0,0,1,0-1l19.19-1.56,16.16-34.92a.5.5,0,0,1,.31-.27.49.49,0,0,1,.41.06l14.24,9,15.41-29.7a.5.5,0,0,1,.59-.25l16,4.9,17.72-10.81a.5.5,0,0,1,.62.08l11.92,12.52a.5.5,0,1,1-.72.69L310.71,115l-17.57,10.72a.51.51,0,0,1-.41.05l-15.78-4.85-15.47,29.81a.5.5,0,0,1-.71.19l-14.22-9-16,34.66a.5.5,0,0,1-.41.29l-19.48,1.58Z"/><path class="cls-4" d="M230.45,186.54a.5.5,0,0,1-.5-.5V166.58a.5.5,0,0,1,1,0V186A.5.5,0,0,1,230.45,186.54Z"/><path class="cls-4" d="M246.34,175.37a.5.5,0,0,1-.5-.5v-45.3a.5.5,0,0,1,1,0v45.3A.5.5,0,0,1,246.34,175.37Z"/><path class="cls-4" d="M261,162.95a.5.5,0,0,1-.5-.5V142.24a.5.5,0,0,1,1,0v20.21A.5.5,0,0,1,261,162.95Z"/><path class="cls-4" d="M276.54,152.21a.5.5,0,0,1-.5-.5V114.33a.5.5,0,0,1,1,0v37.38A.5.5,0,0,1,276.54,152.21Z"/><path class="cls-4" d="M292.87,144.21a.5.5,0,0,1-.5-.5V123.16a.5.5,0,1,1,1,0v20.55A.5.5,0,0,1,292.87,144.21Z"/><path class="cls-4" d="M310.79,143.84a.5.5,0,0,1-.5-.5V108.08a.5.5,0,0,1,1,0v35.26A.5.5,0,0,1,310.79,143.84Z"/><path class="cls-4" d="M210.57,196a.5.5,0,0,1-.5-.5V152.08a.5.5,0,0,1,1,0v42.77c14.27-4.9,26.74-13.81,38.1-22.73,2.57-2,5.09-4,7.58-6,23.68-19,44.16-35.49,69.42-15.78V126.84a.5.5,0,1,1,1,0v24.48a.5.5,0,0,1-.81.39c-25-20.2-45.39-3.82-69,15.14-2.49,2-5,4-7.59,6.06C238.18,182,225.41,191.12,210.73,196Z"/><path class="cls-5" d="M347.05,205.71l9.09,11.82-9.92,6.68-7.68.61s-14.28-8.35-17.52-13.3,2.56-16.28,6.83-18.39a7.18,7.18,0,0,1,7.6.71Z"/><polygon class="cls-6" points="315.07 227.4 246.92 206.5 285.44 141.13 349.56 156.02 315.07 227.4"/><polygon class="cls-7" points="246.34 199.45 246.92 206.5 251.52 198.7 246.34 199.45"/><path class="cls-5" d="M616.25,262.63s16.09,3.15,20,5.49,9.63,18.42,5.95,23.95-12.83-8.92-15.65-11.83,2.81,5.2,2.56,7.17-2.18,1.88-4.9-1.64c-4.15-5.37-13.23-12.24-13.23-12.24Z"/><polygon class="cls-8" points="612.85 255.95 622.45 259.28 618.95 270.55 611.82 271.65 617.14 276.22 616.56 277.97 607 275.2 612.85 255.95"/><path class="cls-9" d="M445.85,182.23l3-2.25a9.29,9.29,0,0,1-.54,4.31s-2.45,4.17-2.47,4S445.85,182.23,445.85,182.23Z"/><path class="cls-10" d="M416.52,544c16.9-.77,20.57-8.28,30.48-13.4s18-10.5,18.1-16.13-5.12-9.65-5.12-9.65l-25.34,11.83s-15.87,15.12-19.73,20.1C409.27,544,416.52,544,416.52,544Z"/><path class="cls-10" d="M434.58,193.13c-21.53,14.8-37.2,28.24-41.68,28.63s-37.13-12.69-37.13-12.69l-8.71,20.29s42.73,24.63,51.1,23.82S442.56,231,442.56,231Z"/><path class="cls-8" d="M437.24,510.09c-1.57,5.07-4.28,8.54-3.69,9.86,2.87,6.41,16.56.77,22.54-6.91S460,500,460,500Z"/><path class="cls-10" d="M472.85,491.53c9.1-3.46,8.69-20.4,12.07-31s5.31-20.16,1.39-24.21-10.44-3.2-10.44-3.2L467,457.21s-2.37,24.35-.37,30.33S472.85,491.53,472.85,491.53Z"/><path class="cls-8" d="M460.3,445.64c8.28,4.7,7.28,15.41,7.58,16.82,1.82,8.49,12.25-11.17,11-20.83s-7.62-13.11-7.62-13.11Z"/><path class="cls-7" d="M425.71,139.21c-1.56,6.72.35,12.39,2.19,17.36.6,1.63,3.69,4.48,8.39,1.83S425.71,139.21,425.71,139.21Z"/><path class="cls-5" d="M425.71,143.66c5,9.38,6.25,19.22,12.39,26.33,4.11,4.75,2.58,7.75,11.46,7.92,6.15.12,12.6-4.62,16.84-13.38,2.61-5.39,8.26-16.18-3.79-25.72s-36.91-3.75-36.91-3.75Z"/><path class="cls-5" d="M448.48,175.94s.72,7.11-1.71,10.56,5.55,15.49,19.38,10.76,10-22,10-22l-9-11.6Z"/><path class="cls-10" d="M424.65,135.06c-8.94,2.69-2.2,14.61,4.42,12.26,11.7-4.16,14.74,5.76,24,4.94,10.36-.91,12.8,14,12.8,14s6,5.86,7.69,2.89,5.2-20.36,3.2-29.55c-.94-4.3-3.94-8.76-7.85-12.33-1.33-1.21-2.31-.31-2.58-.82-3.66-7.12-12.16-7.28-22.17-4.54C431,125.52,434.28,132.17,424.65,135.06Z"/><path class="cls-10" d="M432.88,295.17c-20.28,17-69.35,50.71-66.28,70.86s72.31,77,89.41,86.22c0,0,9.28-13.74,16.52-23.22l-59.4-63L469,297.56,448,277.07S438.3,290.64,432.88,295.17Z"/><path class="cls-10" d="M457.56,301.52s-55.78,56.52-59.2,70.76S434.48,511,434.48,511l32.17-10.4S449,397.62,447,389.22c-4.45-18.85,44.8-52.21,57.2-66.29s8-27.58,8-27.58L467.1,296Z"/><path class="cls-5" d="M459.28,155.62c.72-5.15,3.42-6.33,6.31-4.06s-.65,11.11-.65,11.11Z"/><path class="cls-8" d="M444,187l-4.55,3.91s11.55,35.43,7.44,60.35-19.18,32.78-3.28,44.73,19.1.11,29.11,4.32,16.11,12.66,28.62,9.8S480.77,187,480.77,187l-20.71,11.06Z"/><path class="cls-9" d="M457.56,200l-1.2-5.46-5.78,10.68S454.67,202,457.56,200Z"/><polygon class="cls-9" points="463.29 194.34 464.13 200.28 474.94 203.92 463.29 194.34"/><path class="cls-8" d="M463.29,194.34l11.64,9.57s3.29-3.31,5.77-10.47c3.62-10.42,0-17.51,0-17.51l-6.16-2.74s-1.28,3.09-3.8,9C466.94,191.22,463.29,194.34,463.29,194.34Z"/><path class="cls-8" d="M456.36,194.51l-5.78,10.68s-9.9-11.75-9.19-17.57l4.46-5.38C445.08,187.4,451.31,191.59,456.36,194.51Z"/><path class="cls-7" d="M448.37,204.43c5.84,17.5,10.85,41.42,7,59.93-3.91,18.84-46.35,41-46.35,41s10-17.48,16.65-22c5-3.41,14.34-5.32,18.89-33.19,1.87-11.42-13.43-42.36-13.43-42.36l3.44-14.72,7.29-6.09S447,200.32,448.37,204.43Z"/><path class="cls-10" d="M478,211.09c3.35,63.32,26.16,141.48,26.16,141.48s30.58-20.86,34.42-37.25-15.11-104.47-28.43-121.38-29.48-18-29.48-18S477.37,198.35,478,211.09Z"/><path class="cls-10" d="M499.3,183.51c17.42,11.31,48.63,44.22,55.11,47.64s59.07,24,59.07,24L607,275.2s-61-8.82-67.45-13.31-19.22-16.43-19.22-16.43Z"/><path class="cls-8" d="M532.12,257.18a.5.5,0,0,1-.32-.12c-.5-.42-12.16-10.29-16.33-16.91a30.75,30.75,0,0,1-2.51-5.84,19.25,19.25,0,0,0-1.23-3l0,.1c-.29.67.25,3,.72,5.08.86,3.76,1.75,7.65.1,8.84-.88.64-2.26.37-4.22-.8a.5.5,0,0,1,.52-.86c1.51.91,2.62,1.21,3.11.85,1.11-.81.19-4.85-.49-7.81s-1.06-4.78-.66-5.7c.09-.2.36-.82.93-.82h0c.81,0,1.25,1.2,2.18,3.83a30.13,30.13,0,0,0,2.42,5.64c4.09,6.49,16,16.58,16.13,16.68a.5.5,0,0,1-.32.88Z"/><path class="cls-8" d="M405.71,415.19a.5.5,0,0,1-.49-.39c-.28-1.2-.72-2.9-1.28-5-2.83-10.86-8.09-31.08-5.4-39.55,2.25-7.08,34-43.51,35.35-45.06a.5.5,0,1,1,.75.66c-.33.38-33,37.83-35.15,44.71-2.6,8.19,2.61,28.23,5.42,39,.56,2.16,1,3.86,1.28,5.07a.5.5,0,0,1-.37.6Z"/><path class="cls-9" d="M460.73,297.64l-.16,0c-3.38-1.15-7-2.73-7.81-5.69-.67-2.3.38-5.14,3.22-8.67,5.78-7.2,12-15.93,12.64-28.4.58-11.46-.09-13.36-.12-13.44a.51.51,0,0,1,.27-.65.49.49,0,0,1,.65.24c.08.18.8,2.08.2,13.9-.65,12.76-7,21.64-12.86,29-2.61,3.26-3.61,5.8-3,7.77s2.73,3.5,7.17,5a.5.5,0,0,1-.16,1Z"/><circle class="cls-9" cx="472.5" cy="261.17" r="1.52"/><circle class="cls-9" cx="463.29" cy="282.01" r="1.52" transform="translate(13.15 584.57) rotate(-65.24)"/><circle class="cls-9" cx="472.69" cy="239.7" r="1.52"/><path class="cls-8" d="M428.47,532.75a16.56,16.56,0,0,1-6-1.52.5.5,0,1,1,.43-.9c1.85.87,6.92,2.6,8.13.22.59-1.14.2-2.66-.11-3.87s-.52-2,.09-2.52,1.69-.22,4,1a.5.5,0,0,1-.45.89c-2.4-1.21-2.88-1.11-3-1.07a5.33,5.33,0,0,0,.27,1.48c.33,1.31.79,3.1,0,4.58A3.6,3.6,0,0,1,428.47,532.75Z"/><path class="cls-8" d="M469.85,475.42a.5.5,0,0,1,0-1c.62,0,2.47-.28,2.9-1.08a1.32,1.32,0,0,0-.23-1.29,11.6,11.6,0,0,0-2.91-2.8c-1.15-.88-1.85-1.41-1.62-2.07s1-.72,2.42-.73h0a.5.5,0,0,1,0,1,7.38,7.38,0,0,0-1.32.09,13.6,13.6,0,0,0,1.13.92,12.32,12.32,0,0,1,3.16,3.08,2.23,2.23,0,0,1,.25,2.28c-.78,1.45-3.44,1.59-3.74,1.6Z"/><path class="cls-11" d="M489.79,270.75a.5.5,0,0,1-.5-.48c-.87-18,5.24-41,6.12-44.24l-5-2.9a.5.5,0,0,1,0-.84l5.3-3.85-.44-.89c-1.81-3.58-4.84-9.58-5.91-29a.5.5,0,0,1,.47-.53.49.49,0,0,1,.53.47c1.06,19.18,4,25.06,5.81,28.57.23.46.44.88.63,1.29a.5.5,0,0,1-.16.62l-5,3.65,4.69,2.71a.5.5,0,0,1,.23.57c-.07.25-7.12,25.14-6.19,44.3a.5.5,0,0,1-.47.52Z"/><path class="cls-11" d="M444.89,275.7a.5.5,0,0,1-.18-1c.06,0,6.41-2.72,8.87-18.31,2.48-15.75-7.54-29.54-7.64-29.67a.5.5,0,0,1-.06-.48l1.8-4.57h-3a.5.5,0,0,1-.49-.4c-.19-.94-4.68-23.13-4.62-31a.5.5,0,0,1,.5-.5h0a.5.5,0,0,1,.5.5c-.06,7.22,3.9,27.33,4.52,30.42h3.3a.5.5,0,0,1,.46.68l-2,5c1.31,1.89,10,15.16,7.67,30.19-2.56,16.24-9.21,19-9.5,19.08A.51.51,0,0,1,444.89,275.7Z"/><path class="cls-8" d="M355.52,209.64l-8.46-3.93-1.15,2.75,5.38,7.3-8.26-.58-4.84,10.41,8.88,3.76Z"/><path class="cls-8" d="M295.4,150.86l-52.2,54.56s12.74,11,16.13,12,33.29-2,53.08-7.8c1.86-.54,22.43-25.18,22.43-25.18Z"/><path class="cls-12" d="M312.41,209.66S292,216,280.45,206c0,0-5.51,7.08-21.12,11.47C262.72,218.51,293.46,219.58,312.41,209.66Z"/><path class="cls-9" d="M404.69,72.68a20.05,20.05,0,0,1-5-.67c-5.87-1.51-14.8-3.44-14.89-3.46a.5.5,0,0,1-.38-.62L400.38,11a.5.5,0,0,1,.63-.34c.2.06,20.58,6.14,27.46,7.58a20.54,20.54,0,0,0,11.26-1.33.5.5,0,0,1,.66.67L417.85,65.68l-.06.09C414.22,70.37,409.83,72.68,404.69,72.68Zm-19.15-5c2,.44,9.33,2.06,14.41,3.36,7,1.79,12.55-.12,17-5.84l22-46.92a20.72,20.72,0,0,1-10.69.93c-6.32-1.33-23.89-6.52-27.05-7.46Z"/><path class="cls-9" d="M411.34,30.67,473.15,0,414.82,68.25S430.64,47.48,411.34,30.67Z"/><path class="cls-9" d="M578.54,161.77c-2.25,0-3.76-.22-4.26-.73a1,1,0,0,1-.27-.94c1.07-4.63,4.15-33,4.15-47.55a.5.5,0,0,1,.58-.49l57.12,9a.5.5,0,0,1,.4.64c-6.28,20.82,1,30.22,1,30.31a.5.5,0,0,1-.29.8C631.83,153.81,592,161.77,578.54,161.77Zm.62-48.64c-.08,15.06-3.08,42.47-4.17,47.19,1.18,2.22,31.85-2.5,61.09-8.4-1.56-2.47-6.25-11.91-.93-30Z"/><path class="cls-9" d="M629.48,127.41h-.07l-45.84-6.63a.5.5,0,1,1,.14-1l45.84,6.63a.5.5,0,0,1-.07,1Z"/><path class="cls-9" d="M629.48,133h-.06l-46.61-5.63a.5.5,0,0,1-.44-.56.52.52,0,0,1,.56-.44L629.54,132a.5.5,0,0,1-.06,1Z"/><path class="cls-9" d="M629.48,138.17h0l-46.61-4.35a.5.5,0,0,1,.09-1l46.61,4.35a.5.5,0,0,1,0,1Z"/><path class="cls-5" d="M331.94,202c-5.46-7.51-9-15.28-7-17.24s11.26,9.91,11.26,9.91Z"/><polygon class="cls-10" points="346.54 112.59 286.9 130.14 246.34 199.45 301.98 191.4 346.54 112.59"/><path class="cls-8" d="M298.24,187.53a.5.5,0,0,1-.43-.75l38-66.75a.5.5,0,1,1,.87.49l-38,66.75A.5.5,0,0,1,298.24,187.53Z"/><path class="cls-8" d="M342,172.18a.5.5,0,0,1-.47-.32l-7.16-19.07a.5.5,0,1,1,.94-.35l7.16,19.07a.5.5,0,0,1-.47.68Z"/><circle class="cls-10" cx="614.72" cy="268.56" r="1.16"/><circle class="cls-7" cx="348.85" cy="209.29" r="1.16"/><path class="cls-9" d="M558.78,167.61l7.9,5,70.24-20.39s-1.3,2.4-15.43-27.7Z"/><path class="cls-13" d="M32,288.76c0-.84,0-1.57,0-2.26A18,18,0,0,0,32,288.76Z"/><path class="cls-1" d="M28.69,178.93C17.8,182.72,9.8,187.49,5,193a19.45,19.45,0,0,0-5,11.47c0,.68,0,1.42,0,2.26l0-.06v120.1H0c0,.34,0,.69,0,1,0-.76,0-1.45,0-2.08A19.45,19.45,0,0,1,5,314.3C9.8,308.75,17.8,304,28.69,300.19V240.81h0Z"/><path class="cls-1" d="M28.69,240.82h0S0,224.25,0,206.78l0-.06v120.1H0c-.11,20.32,34.29,43.3,116,69.88V279C76.12,266,47.52,253.05,28.69,240.82Z"/><path class="cls-2" d="M6.85,241.74v40.64s9.56,12.74,35.68,24.09V265.34S18.55,255.91,6.85,241.74Z"/><path class="cls-10" d="M6.85,290.74V318.5a24.67,24.67,0,0,0,6.89,17.15,89.08,89.08,0,0,0,28.8,19.46v-40.4S18.55,304.91,6.85,290.74Z"/><path class="cls-10" d="M103.48,338.26h-.1C85.1,334.47,51,319,50.65,318.85a.5.5,0,0,1,.41-.91c.34.16,34.34,15.57,52.51,19.33a.5.5,0,0,1-.1,1Z"/><path class="cls-10" d="M103.48,344.57h-.1C85.1,340.78,51,325.32,50.65,325.16a.5.5,0,0,1,.41-.91c.34.16,34.34,15.57,52.51,19.33a.5.5,0,0,1-.1,1Z"/><path class="cls-10" d="M103.48,350.88h-.1C85.1,347.09,51,331.62,50.65,331.47a.5.5,0,0,1,.41-.91c.34.16,34.34,15.57,52.51,19.33a.5.5,0,0,1-.1,1Z"/><path class="cls-10" d="M103.48,357.19h-.1C85.1,353.39,51,337.93,50.65,337.78a.5.5,0,0,1,.41-.91c.34.16,34.34,15.57,52.51,19.33a.5.5,0,0,1-.1,1Z"/><path class="cls-9" d="M393,64.54l-.13,0a.5.5,0,0,1-.35-.61l12.42-45.2a.5.5,0,0,1,1,.26l-12.42,45.2A.5.5,0,0,1,393,64.54Z"/><path class="cls-9" d="M399.18,66.07l-.13,0a.5.5,0,0,1-.35-.61l12.16-45.59a.5.5,0,0,1,1,.26L399.66,65.7A.5.5,0,0,1,399.18,66.07Z"/><path class="cls-8" d="M183.55,120.41c-8.23-2.78-17.51,2.7-20.72,12.23s.84,19.51,9.07,22.29,17.51-2.7,20.72-12.23S191.78,123.18,183.55,120.41Zm1.53,19.75c-1.59,4.71-6.17,7.42-10.24,6s-6.07-6.3-4.48-11,6.17-7.42,10.24-6S186.68,135.44,185.09,140.15Z"/><path class="cls-8" d="M183.55,169.77C175.33,167,166,172.47,162.83,182s.84,19.51,9.07,22.29,17.51-2.7,20.72-12.23S191.78,172.55,183.55,169.77Zm1.53,19.75c-1.59,4.71-6.17,7.42-10.24,6s-6.07-6.3-4.48-11,6.17-7.42,10.24-6S186.68,184.81,185.09,189.52Z"/><path class="cls-10" d="M169.9,186.66a10.34,10.34,0,0,1,.47-2.11l.06-.15-7.48-2.69c0,.1-.08.19-.11.3a21,21,0,0,0-.95,4.26Z"/><path class="cls-10" d="M168.71,123.79l4.56,7a7.79,7.79,0,0,1,5.92-2l1.49-9A15.77,15.77,0,0,0,168.71,123.79Z"/><path class="cls-14" d="M185,170.34l-3.67,8.44a7.88,7.88,0,0,1,4.28,6.65l8.05-1.63C193.15,177.87,190,172.68,185,170.34Z"/><path class="cls-14" d="M180.68,119.78l-1.49,9a6.33,6.33,0,0,1,2.43.76l4-8.27a12.81,12.81,0,0,0-4.92-1.53Z"/><path class="cls-4" d="M230.45,130.09a.5.5,0,0,1-.5-.5V110.12a.5.5,0,1,1,1,0v19.46A.5.5,0,0,1,230.45,130.09Z"/><path class="cls-4" d="M246.34,118.92a.5.5,0,0,1-.5-.5V73.12a.5.5,0,1,1,1,0v45.3A.5.5,0,0,1,246.34,118.92Z"/><path class="cls-4" d="M261,106.49a.5.5,0,0,1-.5-.5V85.78a.5.5,0,0,1,1,0V106A.5.5,0,0,1,261,106.49Z"/><path class="cls-4" d="M276.54,95.75a.5.5,0,0,1-.5-.5V57.87a.5.5,0,1,1,1,0V95.25A.5.5,0,0,1,276.54,95.75Z"/><path class="cls-4" d="M292.87,87.76a.5.5,0,0,1-.5-.5V66.7a.5.5,0,0,1,1,0V87.26A.5.5,0,0,1,292.87,87.76Z"/><path class="cls-4" d="M310.79,87.38a.5.5,0,0,1-.5-.5V51.62a.5.5,0,1,1,1,0V86.88A.5.5,0,0,1,310.79,87.38Z"/><path class="cls-4" d="M210.06,139.91a.5.5,0,0,1-.5-.5V95.94a.5.5,0,0,1,1,0v42.77c14.27-4.9,26.74-13.82,38.1-22.73,2.57-2,5.09-4,7.59-6,23.68-19,44.16-35.49,69.42-15.78V70.7a.5.5,0,1,1,1,0V95.18a.5.5,0,0,1-.81.39c-25-20.2-45.39-3.83-69,15.14-2.5,2-5,4-7.6,6.06-11.6,9.11-24.37,18.22-39.06,23.12Z"/><path class="cls-10" d="M214.54,131.31a.5.5,0,0,1-.44-.74l15.51-28.44a.5.5,0,0,1,.3-.24.51.51,0,0,1,.38,0l15.79,9.12,14.48-34.68a.5.5,0,0,1,.53-.3l15.24,2.27L292.51,61a.5.5,0,0,1,.51-.14l17.92,5.33a.5.5,0,0,1,.26.18L323.1,82.07a.5.5,0,0,1-.8.61L310.49,67.14,293,61.94,276.9,79.21a.51.51,0,0,1-.44.15l-15.12-2.25L246.8,112a.5.5,0,0,1-.71.24l-15.84-9.15L215,131A.5.5,0,0,1,214.54,131.31Z"/><path class="cls-2" d="M346.54,69.25v35.66s24.13,13.5,48.27,21.93V93.37S359.23,77.61,346.54,69.25Z"/><path class="cls-2" d="M346.54,114.92v35.66s24.13,13.5,48.27,21.93V139S359.23,123.27,346.54,114.92Z"/></g></g></svg>